<svg xmlns="http://www.w3.org/2000/svg" viewBox="0 0 492.3 404.4"><path d="M83 384.1c0-.1 0-.2-.1-.2l.5-.2-.5-.1.1-.9c0-.6-.2-1.1-.5-1.5l-.1-.1v-.1c-.1-.9-.5-1.5-1.3-2H81l-.1-.2c-.1-.4-.4-.9-.6-1.2l-.1-.1v-.1c0-.2-.2-.5-.4-.8l-.1-.2h-.2a1.92 1.92 0 0 1-1.2-.4l-.4-.2.2-.4h-.7l-2.1-.6h-.1l-1.3.1-.4.6-.8-.5.1-.2c-.7.1-2.2.5-5.8 3.1l-.2.2-1.2 2.2-.1.1c-.5.4-.9 2.2-1.4 5.8v.2l.2.2c.1.2.2.7.4 1.5v.1l-.1.1c-.1.3-.2.6-.2 1l.1.3 1.4 2.9.1.1c.3.7.8 1.4 1.3 2l.1.1h.2c1.1.3 1.5.7 1.6 1l.1.2 3 1.2h.5c.1 0 .1-.1.1-.1.3-.2.5-.3.6-.3l.3.4v-.5c.7 0 1.6-.3 2.7-.8l.1-.1.8.2h.1c.2 0 .7-.2 2.4-1.1l.2-.1c1.4-1.3 2.4-3.5 3-6.5v-1.7c0-.1.1-.4.2-.9v-.5c-.2-.5-.2-.8-.3-1zm-3.5 3.4l-.4.3v.2l-.2 1.8-.1.4h-.2v.3l-.1.1c-.3.4-.5.6-.6.7l-.4.3c-.7.7-1.5 1-2.4 1.1l-1.2-.1c-.1 0-.4 0-.8.1h-.2l-1.4-.4-.2-.1c-1.2-.9-2-1.7-2.4-2.6v-.2c0-.2.1-.5.1-.9 0-.1 0-.4-.1-.8v-.3c-.1-.3-.1-.6-.2-.7l-.1-.1-.2-.8v-.1c0-.4.1-1 .3-1.6v-.2c0-.7.3-1.5 1.1-2.2l.4-.4c.2-.2.4-.4.5-.6l.2-.2 2.3-1.3.1-.1 1.7-.1.4.4v.4h.1v.2h.5c.3 0 .6.2.9.6l.2.2-.2.4h1l.2.3c.1.1.1.3.1.5l1.3 3-.1.6.1 1.9z"/><path d="M73 375.2c.1-.2.2-.3.3-.5-.1.1-.2.3-.3.5z"/><path d="M105.9 388.3c-.2-.6-.4-1.2-.4-1.8v-1c0-.5 0-1 .1-1.7 0-1.6-.2-2.7-.7-3.5l-1.1-1.5-.4.4V378c0-.5-.5-1.1-2.6-2.7l-.1-.1h-.1c-.5 0-1.5-.1-3.5-.2-.8 0-1.9.2-3.2.6l-1.6 1.2h-.5l-.1-.3c-.5-1.2-1.1-1.2-1.2-1.2H90v.2l-.5-.1c-.3 0-.7-.1-1.2-.2h-.2c-2.6.2-3.3.6-3.6.8l-.2.1v.7c0 .2.1.5 1.3 1.9l.2.2 1.8-.2c.2 0 .4 0 .6.1l.3.1.1.3c.1.6.4 1.4.7 2.2l.1.1v.1c0 .1 0 .3-.1.6v.1l.1 2c0 .7-.1 1.5-.2 2.3v.2a10.9 10.9 0 0 1 .3 2.6l-.2 7.2.1.2c.1.4.2.6.3.8l.3.7h-.6l-.1.4c-.1.8-.3 1.2-.4 1.4l-.2.4h-.4c-.7-.2-.8-.2-1.1-.2-.2 0-.5.2-.6.4l-.2.2c-1.3.6-1.6.9-1.8 1.1l-.1.8c.2.3.5.6.7.9h.2c1.1.1 1.6.3 1.8.5l.1.1h.2c.1 0 .2 0 .6-.2l.3-.1v-.5l.3-.1c.4-.2 1-.2 1.9-.2h.2c.1 0 .4 0 1 .6l.1.1h.4c.3 0 .7-.1 1.1-.5l.2-.1.2.1c.8.2 1 .2 1.3.2h.2l.2-.2.4-.5.8.5h.1c.5 0 1-.4 1.4-1.2l-.2-.2c0-.4-.3-.8-.9-1.1l-.1-.1c-.3-.2-.5-.4-.9-.6l-.1-.1h-1.6c-.2 0-.4 0-.7-.1h-.3l-.1-.2c-.2-.4-.3-1-.5-1.8v-.1c0-.4 0-.8.1-1.3 0-.1 0-.5.6-.8l.2-.1.2.1c1.8.6 2.4.6 2.6.6l.3-.1c.6-.3.8-.3 1-.3h1.6c.4 0 .8-.2 1.5-.7l.3-.2c.5-.2.8-.3 1-.5l.4-.1c1-.4 1.6-1 1.7-1.7l.1-.2c.6-1.1.7-1.4.7-1.7s.3-1.1.8-2.2l.1-.2-.1-.2zm-3.7-2.3l-.5 3.4h.4l-.5.5-.3.7-.1.3c-.1.3-.5.7-1.2 1.2-.6.7-1.9 1-3.6 1h-.2c-1.1-.5-2-1.2-2.5-2l-1-1.7c-.1-.2-.2-.3-.2-.4l.4-.3h-.5v-2.2c0-.4.1-.8.2-1.3v-.1l-.5-1.5.1-.2c.4-1 .6-1.4.8-1.7l.1-.2h.5v-.4l.1-.1c1.3-1.3 2.3-2.1 2.9-2.5l.1-.1h.4c.6.2 1.2.4 1.9.4h.2l.1.1c.5.6 1 1 1.3 1.2l.2.2c.1.2.2.3.2.5l.1.1v.5c0 .6.2 1.2.7 1.8l.1.1v1.4c0 .2.1.6.2 1.1v.1l.1.1zm10.4 1.7l.3-.1c.1 0 .2-.1.4-.1h.2c.6 0 1.2.2 2 .6l.1.1h.1l1.3-.1c.2 0 .5.1 1 .2l.2.1.9-.5.2.1c.1 0 .2.1.3.1l.3.1.2-.2h.8l.1-.1c.7-.5 1.5-.8 2.2-.8l.8.1h.1c1.1-.3 2.4-1 2.4-2.3 0-3.3-.8-5.4-2.5-6.5l-.1-.1c-.6-.8-1.2-1.2-1.7-1.4h-.1l-.1-.1c-.3-.4-.8-.8-1.3-1.1l-.1-.1h-.1c-.9-.1-1.5-.2-1.9-.4l-.2-.2h-.2c-3.1 0-5.7.9-7.8 2.6l-.1.1v.1c-.2.6-.7 1.3-1.3 1.9l-.1.2c-.3.6-.6 1.8-1 3.7v3.8c.3 2.2.8 3.7 1.5 4.7l1.3 1.6.2.2-.3.3h.5v.3l.3.1c.9.4 1.5.8 1.9 1.2l.1.1h.2c1.8 0 3.2.1 4.6.4h1.1v-.1l.4-.1c1.4-.3 2.4-.6 3-.9l.3-.1v-.1l.2-.2c.3-.2.6-.5.9-.9l.2-.2c1.2-.5 1.9-1.3 1.9-2.2v-.3c0-.8-.3-1.4-1-1.8h-.9v-.2l-.6.4v-.2h-.2v.3l-.7.4v.2l-.2.1.8.5h-1.9l-.1.3c-.2.3-.3.6-.5.8v.2l-.8.2-2.4.7h-.1l-.8-.3c-1.3-.4-1.7-.6-1.8-.7l-.1-.1s0-.1-.1-.1h-.2c-.8 0-1.4-.7-1.7-2l-.1-.2c-.3-.4-.4-.6-.5-.8l-.5-1 1.1.4v-.6zm-.5-5.2c.6-1.7 1.4-2.5 2.6-2.5h.4l.3-.3c.3-.2.9-.3 1.9-.5h.2l.1.1c.2.1.4.2.7.2h.2l.1-.1c.3-.1.5-.2.6-.3v-.4l1.1.4v1.3l.3.1c.7.2 1.2.7 1.3 1.4l.4 1-1.7.9c-.3.1-.5.1-.6.2h-.2l-1.8.3h-.1l-1-.2h-1.6v.2H114l-.1-.3h-.4c-.1 0-.3 0-.4.1h-.1c-.7.1-.9-.1-1-.2-.2-.2 0-.9.1-1.4zm40.6 10.6c-.7-.4-1.3-.8-1.5-1.1l-.1-.1v-.2l-.2-.2c-.1-.1-.3-.2-.5-.2h-.4l-.4-.5.1-.4.3-.6h-1v-.5c.1-1.1.1-2.1.1-2.9a8.36 8.36 0 0 1 .5-2.9v-1.1h-.3l-.2-.6.1-.1c.3-.6.4-.9.4-1 0-.5-.1-.8-.4-1l-.1-.1v-.1c-.4-.9-.7-1.4-.9-1.7l-.1-.1v-.1c-.1-1-.7-1.8-1.7-2.4l-.3-.1-2.4-.3h-.2c-.7.2-1.3.2-1.8.2-.2 0-.3 0-2.9 1.5l-.1.1-1.2 1.1-.1.1h-1l-.2-.6c-.1-.9-1-1.5-2.8-1.9h-.2c-.1 0-.2 0-.3.1l-.2.1h-.2c-.2 0-.5-.1-.9-.1-1.2.1-2.9.3-2.9 1.4v.5c0 .3.2.6 2.5 1.8l.3.1c.2 0 .5-.1.6-.1l1.3-.7-.5 2.1.2 1.1v.1l-.3 1.3-.1.2.2.3v4.4c0 .4-.1 1.1-.3 2.1 0 0-.1.2-.1.6h.8l-.8.8c-.2.2-.4.3-.6.5l-.2.1h-.2c-.2 0-.5-.1-.9-.2l-.4-.1c-.1.2-.2.3-.2.3-1.1 1.9-1.2 2.3-1.2 2.5v.3l.1.3c.5 1 1.6 1.4 3.3 1.4h.1l.2-.1c.3-.1 1.1-.3 2.2-.4.3 0 .9.2 1.7.5h.2c.2 0 .6-.1 1.2-.4l.1-.1.8.1c.7 0 1.3-.6 1.7-1.7l.2-.7-.6-.9-.1-.1c-1-.5-1.9-1.1-2.8-1.7l-.3-.2.1-.3c0-.1.1-.2.1-.4v-.2s0-.1-.1-.5l-.1-.3.2-.1-.2-.6v-.3c0-.1-.1-.1-.1-.1l-.1-.1v-.2l-.1-1c0-.9.2-1.6.7-2.3l.2-.2c1-.5 1.1-1.3 1.1-1.6v-.2c.1-.4.7-1 1.7-1.9l.2-.1c.6-.2 1.3-.6 2-1.2l.3-.2.3.2a6.39 6.39 0 0 0 1 .6l.2.1.1.2c.2.5.4 1.2.6 1.9v.2c0 .1-.1.3-.2.6l-.1.3.1.2c.8 1.3.9 2.1.9 2.3v.1c-.2.9-.2 1.8-.2 2.7 0 1.3-.3 2.3-.9 3l-.1.1h-.1c-.6.2-1.1.5-1.4.8l-.1.1h-.1c-.5.1-.8.5-1 1.1l-.1.4v1.8h.6l.8.5v-.6l.6.2c.2 0 .3.1.5.2l.2.1.6-.1h.1l1.4.5.6-.6.1-.2h.4c.1 0 .3 0 1 .5l.2.1.7-.2c.2 0 .5 0 1.1.1l.7-.1.3-.1c1-.2 1.7-.7 2.3-1.5l.1-.2v-.2c-.1 0-.2-.2-1.2-1zm35.5-19.8v.1l-.1.1a7.56 7.56 0 0 0-.8 2l-.1.3-1.1.2c-.3 0-1-.1-3.3-1.2l-.2-.1-.2-1.1-.2-2.5-.6.2h-.2c-.7-.1-1.2-.1-1.6-.1h-.2c-1.5.4-2.2 1.1-2.2 2 0 .3 0 .7.1 1v.1l-.1.7.3.2c.3.2.9.4 1.5.6h.1c.5 0 1 .1 1.3.1h.1l.5-.1c.7 0 1.2.7 1.5 2v.8h-.2v.2h-1.7c-.1 0-.5.1-1.1.2h-1.8c-.4 0-.9.1-1.3.9v3.1c0 .3 0 .6.1 1v.1c-.2.4-.3.8-.3.8v.2l.3 2.2c0 .4 0 .6-.2 1v.2c0 .7.1 1.2.2 1.6l.1.3h.5v.8l-.1.1c-.1.2-.2.4-.2.5v1.2l.5.4.2-.1c.9-.3 1.2-.3 1.4-.3h.9c1.6.2 3.4.7 3.6 1.6v.1c.1.2.1.3.1.4 0 .3-.1.8-.9 1.2l-.2.1-.3-.1h-.1c-.4.1-.7.2-.9.4l-.1.1h-.7c-.1 0-.1-.1-.1-.1-.3-.2-.8-.5-1.1-.5h-.8c-.5 0-1 0-1.2.1h-.2c-.5-.1-1-.1-1.5-.1h-1.3l-1.4.5h-.2c-.2-.1-.4-.2-.5-.3l-.2-.1c-.3-.1-.6-.2-.8-.2-.1 0-.4 0-1 .2l-.2.1-.2-.1c-.2-.1-.7-.2-1.3-.2h-.1l-1.1.6h-.2c-.4-.1-.8-.4-1-.9l-.1-.3c0-1.1.5-1.7 1.5-2h.4l2.6-.2.2.1c.6.3 1 .3 1.2.3.5-.1.8-.2 1-.4l.1-.1.2-4.3v-.1c-.1-.2-.1-.6-.2-1.2v-.1l.1-.1c.1-.2.2-.5.2-.8V385l-.4-3.6v-1.1c0-.2-.1-.4-.6-.9l-.3-.3-.6.5h-.5s-.4 0-1.2-.2h-.1l-.3.1c-.6 0-1.1-.3-2-1.3l-.1-.1v-.8c0-.6.8-.9 2.2-1.3h.2c.5.1.9.1 1.1.2h.2c.7-.1 1.3-.3 1.6-.4l.3-.1v-1.2c0-.4.3-1.1.8-2l.1-.1v-.1c.1-.9.5-1.7 1.4-2.4l.2-.1v-.2l.2-.1h.2c.7-.2 1.3-.6 1.7-1.2l.1-.1h.1c.2-.1.6-.2 1.2-.2h.1l.1-.1c.2-.2.7-.3 1.2-.3h.2c1 .3 2.3.5 3.8.6l.3.1c2.3 1.2 3.5 2.5 3.7 3.8l.1.2c-.1.1-.1.7-.1 1zm14.6-6.8v.4l-.1.2c-.1.1-.3.6-.5 2.2v.2c-.5 1-1.1 1.6-1.9 1.7l-.2.1c-.4.2-1.3.3-2.1.3h-.2c-1.5-.6-2.2-1.8-2.2-3.4.5-2.6 1.5-3.9 3.3-3.9 1.2 0 2.5.7 3.8 2.1l.1.1zm4.8 27.6l.1.2v.2c-.2.9-.5 1.5-.8 1.9l-.1.2h-.2c-3-.1-4.9-.3-5.8-.6h-.2l-1.2.1h-.1l-.1-.1c-.2-.1-.4-.2-.5-.2h-1.4c-.8 0-1.9.3-3.2.8l-.2.1-.2-.1a1.93 1.93 0 0 0-1-.3h-1.5v.3l-.5-.1c-2.8-.6-2.8-1.9-2.8-2.3 0-1.8 2.2-2.2 4-2.2h.2c.2 0 .5.1.9.1h.1l.9-.4 1 .1c1 0 1.2-1.6 1.2-3v-.5h.3l-.3-1.2c0-.2 0-.4.1-.5v-.1l-.1-.6v-.1l.1-1.9-.1-.8v-.1c.2-.6.3-1.1.3-1.3v-.7c0-1.3-.3-2-1-2h-.5l-1.3.3-1-.1h-.1c-.5 0-.9.1-1.1.1h-.1l-.2.2c-.2-.1-.3-.1-.3-.1-.9-.4-1.1-1-1.1-1.5l.3-1.2v-.2c0-.2 0-1 2.1-1.2h.1l.1-.1c.3-.2.7-.3.8-.3h.2c.2 0 .4 0 1 .2h.1l1.2-.3c1.7 0 3.6.4 3.8 2.3l.1.4-.1 1.3v.1c.2.7.3 1.3.3 1.8v4.8l.1 3.4v.1c-.1.3-.1 1-.1 1.9 0 .2 0 .7.1 1.1s.3.8.7.8c.8.1 1.4.1 2.1.1.3 0 .7-.1 1.2-.2h.2c.5.1 1.1.2 1.5.4l.2.1.2-.1.2.2c.8.1 1.2.5 1.4.8zm25.1-12.7c0 1.2-1.9 1.9-3.9 2.3-.6-.2-2.2-.7-2.4-1.7l-.1-.2c-.1-.2-.2-.6-.3-.8v-.1c.1-.5.1-1 .1-1.3v-.2l-.1-.2c-.3-.3-.7-.4-1.2-.5h-.2l-.3.2-1.5 1.1-1 .9h.1c-.2.2-.5.6-.9 1-.3.5-.5 1-.7 1.6s-.4 1.2-.7 1.5l-.1.2c-.2.6-.2 1.5-.2 1.9 0 .2 0 .8.1 1.2a5.07 5.07 0 0 0-.2 1.3c0 .6 0 2.5 1.4 2.5h2.7l.1-.1h.1l.4-.1h.6c1.6 0 2.5 1.6 3.1 2.9v1.3h-1.8c-.3.1-.8.3-1.3.4l-2.8-.8h-.2l-.2.1c-.1.1-.3.3-.6.5-.4 0-.8 0-1.2.1l-.2-1-.5.1c-.4.1-1.7.5-2.4 1l-.5.4.1.1c-.2.1-.5.2-.6.2h-1c-.4.1-.7 0-1.7-.3h-1.2l-.1-.1c-.1-.1-.6-.4-2-.9a2.08 2.08 0 0 1-.5-1.2c.2-.3.5-.9.7-1.4.3-.2.8-.5 2.3-.7h.1c.3-.1.7-.1.9-.1h2.6l.1-.4c.1-.5 0-1.2 0-1.9.1-.6.1-1.2.1-1.7v-.1c-.1-.6-.2-1.9-.3-2.8l.4-1.1v-.2c-.1-.5-.2-.8-.2-1.1s.1-.6.2-.8l.1-.2v-.2l-.4-2.6-.1-.4h-.4c-.8 0-1.5.1-2.1.2-.3 0-.7-.1-1.1-.1-.2 0-.8 0-1.7.2-.8-.3-1.2-.8-1.2-1.3.3-2.2 1.5-2.7 2.5-2.7l.7.2h.2c.5-.1 1.2-.2 1.7-.2 1.1 0 4.6.2 5 1.6v.1l.1.1c.2.2.5.4.6.5l.9.4-.1-.6c.5-.4.9-.8 1.2-1.3.5-.1 1.9-.5 3.3-.9.7 0 1.6-.1 1.6-.1.3 0 .9 0 1.4-.1 1.5.4 2.5.9 2.9 1.4l.2.1c.5.2 1 1 1.4 2.1 0 .5.1 1 .1 1.4s.1.6.1.6c-.1.1 0 .4 0 .8zm6.3 6.3l.3-.1c.1 0 .2-.1.4-.1h.2c.6 0 1.2.2 2 .6l.1.1h.1l1.3-.1c.2 0 .6.1 1 .2l.2.1.9-.5.2.1c.1 0 .2.1.3.1l.3.1.2-.2h.8l.1-.1c.7-.5 1.5-.8 2.2-.8h.1l.8.1h.1c1.1-.3 2.4-1 2.4-2.3 0-3.3-.9-5.4-2.5-6.5l-.1-.1c-.6-.8-1.2-1.2-1.7-1.4h-.1l-.1-.1c-.3-.4-.8-.8-1.3-1.1l-.1-.1h-.1c-.9-.1-1.5-.2-1.9-.4l-.2-.2h-.2c-3 0-5.7.9-7.8 2.6l-.1.1v.1c-.2.6-.7 1.3-1.3 1.9l-.2.2c-.3.6-.6 1.9-1 3.7v3.8c.4 2.2.8 3.7 1.5 4.7l1.3 1.6.2.2-.3.3h.5v.3c.2.1.3.1.3.1.9.4 1.5.8 1.9 1.2l.1.1h.2c1.8 0 3.2.1 4.5.4h1.1v-.1l.4-.1c1.4-.3 2.4-.6 3-.9 0 0 .1 0 .3-.1v-.1l.2-.1c.3-.2.6-.5.9-.9l.2-.2c1.2-.5 1.9-1.3 1.9-2.2v-.3c0-.8-.3-1.4-.9-1.8l-.1-.1h-.8v-.2l-.6.4v-.2h-.2v.3l-.7.4v.2l-.2.1-.2.4-.9.1-.1.3c-.2.3-.3.6-.5.8v.2l-.8.2-2.4.7h-.1l-1-.1c-1.3-.4-1.7-.6-1.8-.7l-.2-.2h-.2c-.8 0-1.4-.7-1.7-2l-.1-.2c-.3-.4-.4-.6-.4-.7l-.5-1.1 1.1.3v-.7zm-.5-5.2c.6-1.7 1.4-2.5 2.6-2.5h.4c.1-.1.1-.2.1-.2.2-.2.7-.4 2-.6h.2l.1.1c.2.1.4.2.7.2h.2l.1-.1.6-.3-.1-.5 1.3.5v1.2l.3.1c.7.2 1.2.7 1.3 1.4l.4 1-1.7.9c-.3.1-.5.1-.6.2h-.1l-1.8.3h-.1l-1-.2h-1.7v.2h-1.3v-.3h-.4c-.1 0-.3 0-.4.1h-.1c-.7.1-.9-.1-1-.2-.3-.1-.1-.8 0-1.3zm48 7.8v.1c0 .9-.2 1.7-.5 2.2l-1.3 1.4-3.8 1.4a3.04 3.04 0 0 0-.7.5l-.1.1h-.2c-.9 0-1.7.2-2.5.4h-.2l-1.1-.2H274c-.2 0-.5 0-1.6-.4l-.2-.1-.4.2h-.2c-.3 0-.6-.2-1.4-1.4l-.1-.1c-1.1-.8-1.7-1.4-1.9-1.8-1.4-2.8-2.1-4.5-2.1-5.2.1-.5.1-.9.1-1.2v-.2c0-.6 0-1.2-.1-1.5 0-1 .1-3.1.8-3.7l.1-.1v-.2c.2-1 .6-1.6 1.2-1.8h.2l.1-.1c1.1-1.5 1.2-1.6 1.6-1.6.1 0 .5-.1.9-.8l.2-.2c.8-.5 1.7-.8 2.7-.8h.2c.9-.4 1.9-.7 2.9-.8h.1l1.2.3h.1c.3-.1.5-.1.5-.1h.2l3 1.4.2.1c.8.1 1.5.8 2.1 2l.2.2c.8.4 1.2 1 1.3 1.8v.1l.1.1c.1.2.2.4.2.7-.4 2.3-.9 3.5-1.5 4l-.7.5v-.7l-.8.4a4.87 4.87 0 0 1-.7.3l-.1.1h-.1c-.5 0-1.2-.5-2.2-1.5l-.8-.8h.3v-2.8h-.5l.1-.5c-.1-.1-.4-.2-.8-.4l-.3-.1c-.7 0-1.2 0-1.7-.1h-.2c-1.4 0-3.2.3-3.9 1.3l-.1.2c-1.1.9-1.7 1.9-2 3.1v.2c.2.5.2.6.2.7l-.1.3-.4.8h.7l-.5.8v.2c.1 1.5 1 3.2 2.8 5l.1.1h.1c.3.1.9.4 1.7.8l.1.1h.1l3.4-.5.3-.1v-.4l.3-.1c.7-.3 1-.4 1.2-.6l.2-.1v-.2c.1-.7.7-1.2 1.8-1.6l.2-.1c.2-.2.5-.5.9-.5.4.1 1.1.2 1.4.6l.2.1c.7.3 1 .5 1.2.7l.4.1zm21.4-6.2c0-.1 0-.2-.1-.2l.5-.2-.5-.1.1-.9c0-.6-.2-1.1-.5-1.5l-.1-.1v-.1c-.1-.8-.5-1.5-1.3-2l-.1-.1v-.2l-.6-1.2-.1-.1v-.1c0-.2-.2-.5-.4-.8l-.1-.2h-.2a1.92 1.92 0 0 1-1.2-.4l-.4-.2.2-.4h-.7c-.3 0-1-.3-2.1-.6h-.1l-1.3.1-.4.6-.8-.5.1-.2c-.7.1-2.2.5-5.8 3.1l-.1.1v.1l-1.2 2.2-.1.1c-.5.4-.9 2.2-1.4 5.8v.2l.1.1c.1.2.3.7.5 1.6v.1l-.1.1c-.1.3-.2.6-.2 1l.1.3 1.4 2.9.1.1c.3.7.8 1.4 1.3 2l.1.1h.2c.9.2 1.4.5 1.6 1l.1.2 3 1.2h.5l.1-.1c.3-.2.5-.3.6-.3l.3.4v-.5c.7 0 1.6-.3 2.7-.8l.1-.1.8.2h.1c.2 0 .7-.2 2.4-1.1l.1-.1c1.4-1.3 2.4-3.5 3-6.5v-1.7c0-.2.1-.5.2-1v-.5c-.2-.3-.3-.6-.4-.8zm-3.4 1.1c0 .2 0 .4-.1.6v1.7l-.4.3v.2l-.2 1.8-.1.4h-.2v.3l-.1.1c-.3.4-.5.6-.6.7l-.4.3c-.7.7-1.5 1-2.4 1.1l-1.2-.1c-.1 0-.4 0-.8.1h-.2l-1.4-.4-.2-.1c-1.2-.9-2-1.7-2.4-2.6l-.1-.1v-.1c0-.2.1-.5.1-.9v-1c-.1-.3-.1-.6-.3-.8v-.1l-.2-.8v-.1c0-.4.1-.9.3-1.6v-.2c0-.7.4-1.5 1.1-2.2l.5-.5c.2-.2.4-.4.5-.6l.2-.2 2.3-1.3.1-.1 1.7-.1.2.1.2.2v.4h.1v.2h.4c.3 0 .6.2.9.6l.2.2-.2.4h1l.2.3c.1.1.1.3.1.5l1.3 3 .1.4z"/><path d="M298.2 374.6c-.1.2-.2.3-.3.5.1-.1.2-.3.3-.5 0 .1 0 .1 0 0z"/><path d="M329.1 384.1v-.2l.5-.2-.5-.1.1-.9c0-.5-.2-1.1-.5-1.5l-.1-.1v-.1c-.1-.8-.5-1.5-1.3-2l-.1-.1-.1-.2c-.2-.6-.4-1-.6-1.2l-.1-.1v-.1c0-.2-.2-.5-.4-.8l-.1-.2h-.2a1.92 1.92 0 0 1-1.2-.4l-.4-.2.2-.4h-.7l-2.1-.6h-.1l-1.3.1-.1-.5h-.2c-.1 0-.1-.1-.2-.1h-.3l-.3.5c-.7.1-2.2.5-5.8 3.1l-.1.1v.1c-.3.7-.7 1.4-1.2 2.2l-.1.1c-.5.4-.9 2.2-1.4 5.8v.2l.1.1c.2.2.3.8.5 1.6v.1l-.1.1c-.1.3-.2.6-.2 1l.1.3 1.5 2.9.1.1c.3.7.8 1.4 1.3 2l.1.1h.2c1.1.3 1.5.7 1.6 1l.1.2 3 1.2h.5l.1-.1c.3-.2.5-.3.6-.3l.2.4v-.5c.7 0 1.6-.3 2.7-.8l.1-.1.8.2h.1c.2 0 .7-.2 2.4-1.1l.1-.1c1.4-1.3 2.4-3.5 3-6.5v-1.7c0-.2.1-.5.2-1v-.5c-.3-.3-.4-.6-.4-.8zm-3.5 3.4l-.4.3v.2l-.2 1.8-.1.4h-.2v.3l-.1.1c-.3.4-.5.6-.6.7l-.4.3c-.7.7-1.5 1-2.4 1.1l-1.2-.1c-.1 0-.4 0-.8.1h-.2l-1.4-.4-.2-.1c-1.2-.9-2-1.7-2.4-2.6l-.1-.1v-.1c0-.2.1-.5.1-.9v-1c-.1-.3-.1-.6-.3-.8v-.1l-.2-.8v-.1c0-.4.1-.9.3-1.6v-.2c0-.7.4-1.4 1.1-2.2l.2-.2-.1-.1.3-.2c.2-.2.3-.4.5-.6l.2-.2 2.3-1.3.1-.1 1.7-.1.4.4v.4h.1v.2h.5c.3 0 .6.2.9.6l.2.2-.2.4h1l.2.3a.9.9 0 0 1 .1.5l1.3 3-.1.7.1 1.9z"/><path d="M319.4 374.6c0 .1 0 .1 0 0-.1.2-.2.4-.3.5.1-.1.2-.3.3-.5zm57.3 19.5l-.9-1.1c-.2-.1-.4-.2-.6-.4-.3-.1-.7-.1-1.1-.2-.2 0-.4 0-.5-.1-.5.1-1 .2-1.4.2-.7 0-1.4 0-2.1-.1-.8 0-.8-1.4-.8-1.9 0-1.1.1-1.7.1-1.9-.1-1-.1-2.3-.1-3.4v-4.8c0-.5-.1-1.1-.3-1.8V377c0-.6-.5-2.3-3.8-2.3l-1.2.3h-.1l-1-.2h-.2c-.1.1-.5.1-.8.3l-.1.1h-.1c-2.1.2-2.1.9-2.1 1.2v.2c-.1.3-.2.7-.3 1.2 0 .5.2 1 1 1.4.2 0 .4 0 .6.1.2-.1.7-.2 1.2-.2h.1l1 .1c.4 0 .8-.1 1.2-.2h.1c.9 0 1.3 1.4 1.3 2.1v.7c0 .1-.1.5-.4 1.3l.1.9c0 .3 0 1.1-.1 2v1l.1.8-.1 1c0 1.9-.4 3-1.2 3l-1-.1c-.4.2-.8.3-.8.3h-.2c-.4 0-.8-.1-.9-.1-2.6 0-4.2.8-4.3 2.1v1.4l-.9-1.1-.9-.9c-1.8-.1-2.8-.5-3.2-.7l-.1-.1c-.1 0-.4-.2-.6-.5-.5-.2-1.4-.9-2.8-3.3l-.1-.2-.1-1.3v-.5l-.3-.1c-.8-.2-1.2-.5-1.4-.8a10.37 10.37 0 0 1-.7-1.2h-.7l.6-.8c.4-.6.7-1.1.8-1.5v-.1l.1-.1c.2-.2.3-.4.4-.8v-.1l.1-.1 2.1-1.6c.3-.2 1-.6 2.7-1h.2l.1.1c.9.4 1.2.5 1.4.5 0 0 .3 0 .6-.1.2-.1.4-.3.4-.4l.1-.1h.1c.9-.5 1.2-.7 1.2-1 0-.4-.2-1.5-2.2-2.3l-.7.1h-.1c-.3 0-.8-.1-1.4-.3-.2 0-.5 0-1.3.2h-.2c-.6-.2-.7-.2-.8-.2-.6 0-1.8.1-3.6.3-.9 0-1.5.2-1.9.6s-.4.9-.4 1.2l.2 3.1-.4.1c-.3 0-1.3 1-3 2.9l-.9 1v-2c0-.5-.1-1-.2-1.2l-.1-.1v-.2c.1-.6.2-1.8.3-3.2l.1-1.4c0-.3-.1-.9-.2-1.4v-.1c0-.1 0-.5.2-.9-.1-.4-.1-1-.1-1.2v-2.1c-.4-3-1.7-3-2.1-3h-.2l-1 .2h-.2s-.7 0-1.1-.1c-.5-.1-.8-.1-1.2-.1h-.1c-1.2 0-1.8.6-2.1 1.1v1c.8.8 1.8 1.3 2.6 1.3l1.6.1v.4c0 .5.1 1 .2 1.5s.2.8.2 1.1-.1.7-.2 1c0 .8.1 2 .5 3.5v.2l-.1.2c-.3.7-.4 1-.4 1.1v.5c.2.9.3 1.6.3 1.8v.1c0 .2-.1.6-.2 1.1l.1 3c0 2-.2 3-.4 3.4l-.4.8.6.2v.4c0 1-.7 1.9-1.8 2.3h-.1l-.4-.1c-.3 0-.7-.1-1.1-.2-.5 0-1 .4-1.2.9 0 .9 1 1.9 2.4 2.5 1.1-.3 2.6-.4 3.5-.4.4 0 1 .1 1.5.2l2.5-.4c.3-.1 1.4-.5 1.5-.8l.3-1.2-.7-.1-.2-.2-1.2-.8c-.2 0-.4 0-.6-.1h-.8l-.3-1.2c0-.1 0-.4.1-1v-.4l.1-.1c.2-.2.8-.8 1.9-1.4.2-.5.6-1 .8-1.3l1.2-1.7-.5 3.2c.2.3.3.6.4.9.7.4 1.2.8 1.5 1.2l.1.2-.1.2a17.8 17.8 0 0 0-1 2.1l-.1.4h-.3l.4 1.1c.3.8 1.2 1.4 2.6 1.7h.5c1-.2 1.2-.5 1.3-.5l.2-.2h.2c.2 0 .7 0 1.2-.1l.4-.1.2.3c.1.3.4.5.9.5.1 0 .2-.1.3-.2l.3-.3.3.3c.8.6 1 .6 1.1.6.4 0 .7-.1.9-.3l.1-.1h.2c.9-.1 1.7-.4 2.3-1l.1-.1 1-.2.2.1c.5.4 1.1.6 1.9.8h1.2l.9-.2c.3 0 .7.1 1.1.3 1.3-.5 2.8-.8 3.6-.8l1.7.1h.3c.3 0 1 .1 1.4 0h.2c.6.2 2.4.3 5.8.5.3-.5.8-1.3 1.1-2.1-.3.2-.3.2-.4 0zm-5.6-26.2v.4l-.1.3c-.1.2-.3.7-.5 2.1l-.1.2c-.5 1-1.1 1.6-1.9 1.7l-.2.1c-.4.2-1.3.3-2.1.3h-.2c-1.1-.4-2.3-1.4-2.3-3.4.5-2.6 1.6-3.9 3.3-3.9 1.2 0 2.5.7 3.9 2.1l.2.1zm31.2 25.2c-.9-.6-1.4-.9-1.5-1.1l-.1-.1v-.2l-.2-.2c-.1-.1-.3-.2-.6-.2h-.4l-.2-.2-.3-.2.1-.4.3-.6h-.8v-.5l.1-2.9a8.36 8.36 0 0 1 .5-2.9v-1.1h-.5v-.6l.1-.1c.3-.6.4-.9.4-1 0-.5-.1-.8-.4-1l-.1-.1v-.1c-.4-.8-.6-1.4-.9-1.7l-.1-.1v-.1c-.1-1-.7-1.8-1.7-2.4l-.3-.1-2.4-.3h-.2c-.7.2-1.3.2-1.8.2-.2 0-.3 0-2.9 1.5l-.2.1-1.2 1.2h-1l-.2-.6c-.1-.9-1-1.5-2.8-1.9h-.2c-.1 0-.2 0-.3.1l-.1.1h-.2c-.2 0-.5-.1-.9-.1-1.2.1-2.9.3-2.9 1.4v.5c0 .3.2.6 2.5 1.8l.3.1c.2 0 .5-.1.6-.1l1.3-.7-.5 2.1.3 1.1v.1l-.3 1.3-.1.2.1.2v4.5c0 .4-.1 1.1-.4 2.1l-.1.6h.8l-.8.8c-.2.2-.4.3-.7.5l-.1.1h-.2c-.2 0-.5-.1-.8-.2l-.5-.1-.2.3c-1 1.7-1.1 2.4-1.1 2.7.5.9 1.6 1.9 3.4 1.9h.1l.2-.1c.3-.1 1.1-.3 2.2-.4.3 0 .9.2 1.7.5h.2c.2 0 .6-.1 1.2-.4l.1-.1.8.1c.7 0 1.3-.6 1.7-1.7l.2-.7-.5-.9-.1-.1c-1-.5-1.9-1.1-2.8-1.7l-.3-.2.1-.5c0-.1.1-.2.1-.3v-.2s0-.1-.1-.5l-.1-.3.2-.1-.2-.6v-.3l-.2-.4-.1-1c0-.9.2-1.6.7-2.3l.2-.2c1-.5 1.1-1.3 1.1-1.6v-.2c.1-.4.7-1 1.7-1.9l.1-.1c.6-.2 1.3-.6 2-1.2l.3-.2.3.2c.4.3.8.5 1 .6l.2.1.1.2c.2.5.4 1.1.6 1.9v.2c0 .1-.1.4-.2.6l-.1.2.1.2c.8 1.3.9 2 .9 2.3v.1c-.2.9-.2 1.8-.2 2.7 0 1.3-.3 2.3-.9 3l-.1.1h-.1c-.6.2-1.1.5-1.4.8l-.1.1h-.1c-.5.1-.8.5-1 1.1l-.4.5v1.8h.6l.8.5v-.6l.6.2c.1 0 .3.1.5.2l.1.1.6-.1h.1l1.4.5.6-.6.1-.2h.4c.1 0 .3 0 1 .5l.2.1.7-.2a5.38 5.38 0 0 1 1.1.1l.7-.1.3-.1c1-.2 1.7-.7 2.3-1.5l.1-.2v-.2c.2-.1.1-.2-.9-1.1zm25.5-16l-.1-.2c-.7-1.4-1.6-2.1-2.6-2.1h-1.5c-.3 0-.9.1-3.2 1.2l-.2.1-.7-.2c-2.2-.8-3.7-1.1-4.5-1.1h-.2c-.1 0-.2.1-.4.2l-.2.1c-.5 0-1.8.1-2.3.7l-.1.1h-.2c-.9.3-1.5.6-1.7 1.1v.1l-.1.1c-.5.5-.8.9-.9 1.2v.2c0 .1 0 .1-.1.2l-.2.6-.5-.4c-.2-.1-.3-.2-.3-.2h-.3c-.5 0-.7.6-.8 1.9v.3l1.4.6-.1.4c0 .1 0 .3-.1.4-.1.3-.1.5-.1.8v.1l.1.1c.3.6.5 1.1.5 1.4v.2l-1.7 1.9c-.8.4-1.1 2.1-1.2 3.7 0 .8.3 1.7 1 2.5l.2.3-.2.3c-.1.1-.2.2-.3.4-.8 1.3-1.1 2.3-1.1 3.2v.5a4.44 4.44 0 0 0 .2 1.3v.2c0 .6.4 1.1 1 1.6l.1.1 1.3 1.7.1.1h.2l2.8.4.2.1.2.3.3-.2h.2c.7.2 2 .3 4.3.4h.5l.5-.1c1.1 0 2-.1 2.4-.2l.2-.1.2.1c.1 0 .2.1.4.2l.1.1h.1c.2 0 .4-.1.6-.2l.2-.2c.2-.6 1-.6 1.3-.6h.2c1-.5 1.4-.8 1.6-.8l.2.4v-.5h.1l.1-.1c.7-.5 1.2-1.2 1.5-2.2l.1-.2c.2-.2.3-.6.3-1 0-2-.3-3.2-.9-3.7l-.1-.1a4.44 4.44 0 0 0-1.9-1.7l-.2-.1c-.4-.5-2-1-5.2-1.7-.3 0-.6.1-.9.2l-.1.1-3.1-.2-2.8 1.2h-.2c-.3 0-.5-.1-.7-.1h-.2l-.6-.8c-.5-.6-.7-1.1-.7-1.6v-.2l.1-.2.7-.7.8-.2v-.4h.7c.2.1.5.2 1 .5l.4.1c.3.1 1 .4 1.9.9l.1.1 1.6-.2h.1c.7.2.9.2 1 .2.3 0 .6-.1 2-1.6l.1-.1h.1c.8-.2 1.4-.4 1.7-.6l.1-.1c.9-.3 1.3-2.4 1.5-4.1v-.1l-.1-.6v-.1c.1-.6.1-1.1.1-1.5s0-.7.1-1l.2-.8 2.1 1.9 1 .1v-.7l.2-.1c.2-.1.4-.2.9-.2h.4v-.4c.2-.8.1-1.4 0-2.7zm-19.2 20c.5-.6.9-1.3 1.2-1.9.5-.7.8-.9.9-1l.3.4.1-.5 2.1.1.1-.1c.2-.1.4-.2.6-.2.3 0 .5.1 1.1.4l.6.2v-.3l1.2.1c.1 0 .1-.1.1-.1.5-.3.7-.3.8-.4l.2.5v-.5h.4c.3.1.7.2 1 .4l.3.1c1.2 0 2.2.6 3 1.6l.1.2h.2c.4 0 .7.1.9.2l.8.2-.5.6c-.5.6-.8 1-.8 1.4v.2l-.2.1c-.3.2-.9.5-2.4 1l-.3.1v.1l-.4.1c-.7.1-2.2.4-5.6.6h-.4l-1.1-.5v.3l-.7-.2c-.3-.1-.5-.2-.6-.2l-.3-.1v-.4h-.3c-.8 0-1.5-.4-2.3-1.3l-.1-.1-.1-.9.1-.2zm10.7-13l-.1.1-1.3 1.2-.1.1h-.2c-.2.1-.7.2-1.6.3-.7 0-1.4-.1-2.2-.3l-.2-.1c-1.6-1.1-2.4-2.1-2.4-3.1v-1.2l.8-1a3.51 3.51 0 0 1 1.7-1.9l.2-.2c.3-.4 1-.6 2-.8h.2l.1.1c.3.2.6.5 1 .7l.3.1c.7 0 .8.6.8 1.1v.2l.1.1c.3.3.5.5.6.7h.2v2.8l.1 1.1zm71-40.1c-1.1 0-2-.9-2-2v-3c0-1.1-.9-2-2-2h-6.8V66.5H315.9C311.5 29.1 279.7 0 241.2 0s-70.3 29.1-74.7 66.4H13.1v270.5H6.2c-1.1 0-2 .9-2 2v3c0 1.1-.9 2-2 2s-2 .9-2 2v3c0 1.1.9 2 2 2h7.1c1.9 0 3.4 4.8 3.4 10.7 0 3-.4 5.6-1 7.6-1.5 4.7-2.4 9.5-2.4 14.5v10.8c0 5 3.8 9.4 8.8 9.7 5.5.4 10.1-4 10.1-9.4v-11.6c0-4.8-.8-9.5-2.3-14-.6-1.9-1-4.6-1-7.5 0-5.8 1.5-10.5 3.3-10.7h7c1.1 0 2-.9 2-2v-3c0-1.1-.9-2-2-2s-2-.9-2-2v-3c0-1.1-.9-2-2-2h-6.8V77.4H180v-2.2c0-33.8 27.5-61.2 61.2-61.2s61.2 27.5 61.2 61.2v2.2h166v259.5h-7c-1.1 0-2 .9-2 2v3c0 1.1-.9 2-2 2s-2 .9-2 2v3c0 1.1.9 2 2 2h7.1c1.9 0 3.4 4.8 3.4 10.7 0 3-.4 5.6-1 7.6-1.5 4.7-2.4 9.5-2.4 14.5v10.8c0 5 3.8 9.4 8.8 9.7 5.5.4 10.1-4 10.1-9.4v-11.6c0-4.8-.8-9.5-2.3-14-.6-1.9-1-4.6-1-7.5 0-5.8 1.5-10.5 3.3-10.7h7c1.1 0 2-.9 2-2v-3c-.1-1.1-1-2-2.1-2zM105 238.2c5.5 0 10.8-1 15.9-3.1 5-2.1 9.5-5 13.3-8.7 3.9-3.8 6.9-8.2 9.1-13.2 2.2-5.1 3.3-10.5 3.3-16.2v-45.5c0-5.5-1.1-10.9-3.3-16-2.2-5-5.2-9.5-9.1-13.2-3.8-3.7-8.2-6.7-13.2-8.8a39.86 39.86 0 0 0-16-3.3H63.6v190.3h25.9v-62.1H105zm-15.5-25.3v-77.5H105c2.1 0 4.2.4 6.1 1.3 2 .9 3.7 2 5.2 3.5 1.4 1.4 2.5 3.1 3.3 4.9s1.2 3.9 1.2 6v45.8c0 2.2-.4 4.3-1.2 6.2s-1.9 3.6-3.3 5-3.2 2.6-5.2 3.5c-1.9.8-3.9 1.3-6.1 1.3H89.5zm193.4 87.4V81.6c0-5.7-1.1-11.2-3.3-16.3s-5.3-9.5-9.2-13.2c-3.8-3.6-8.2-6.5-13.2-8.7a40.22 40.22 0 0 0-16-3.3c-5.5 0-11 1.1-16.1 3.3-5 2.2-9.4 5.1-13.2 8.7-3.8 3.7-6.8 8.1-9 13.2s-3.3 10.6-3.3 16.3v218.8h25.9v-94.9h31.4v94.9h26zM225.6 180V81.6c0-4.5 1.5-8 4.6-11.2 3.1-3.1 6.6-4.6 11-4.6 2.1 0 4.2.4 6.1 1.3 2 .9 3.7 2.1 5.2 3.5 1.4 1.4 2.5 3.1 3.3 5s1.2 3.9 1.2 6.1V180h-31.4zm-162 153h364.9v11H63.6zm364.8-32.7v-25.4h-57.1l57.1-164.8h-92.5v25.4h56.6l-56.6 164.8z"/></svg>
