<svg xmlns="http://www.w3.org/2000/svg" viewBox="0 0 492.3 404.4"><path d="m490.3 344c-1.1 0-2-0.9-2-2v-3c0-1.1-0.9-2-2-2h-0.9-0.4-5.5v-270.5h-163.6c-4.4-37.4-36.2-66.5-74.7-66.5s-70.3 29.1-74.7 66.4h-153.4v270.5h-5.5-0.4-1c-1.1 0-2 0.9-2 2v3c0 1.1-0.9 2-2 2s-2 0.9-2 2v3c0 1.1 0.9 2 2 2h7.1c1.9 0 3.4 4.8 3.4 10.7 0 3-0.4 5.6-1 7.6-1.5 4.7-2.4 9.5-2.4 14.5v10.8c0 5 3.8 9.4 8.8 9.7 5.5 0.4 10.1-4 10.1-9.4v-11.6c0-4.8-0.8-9.5-2.3-14-0.6-1.9-1-4.6-1-7.5 0-5.8 1.5-10.5 3.3-10.7h7c1.1 0 2-0.9 2-2v-3c0-1.1-0.9-2-2-2s-2-0.9-2-2v-3c0-1.1-0.9-2-2-2h-0.9-0.4-5.5v-259.6h155.6v-2.2c0-33.8 27.5-61.2 61.2-61.2s61.2 27.5 61.2 61.2v2.2h166v259.5h-5.6-0.4-1c-1.1 0-2 0.9-2 2v3c0 1.1-0.9 2-2 2s-2 0.9-2 2v3c0 1.1 0.9 2 2 2h7.1c1.9 0 3.4 4.8 3.4 10.7 0 3-0.4 5.6-1 7.6-1.5 4.7-2.4 9.5-2.4 14.5v10.8c0 5 3.8 9.4 8.8 9.7 5.5 0.4 10.1-4 10.1-9.4v-11.6c0-4.8-0.8-9.5-2.3-14-0.6-1.9-1-4.6-1-7.5 0-5.8 1.5-10.5 3.3-10.7h7c1.1 0 2-0.9 2-2v-3c-0.1-1.1-1-2-2.1-2z" /><path d="m105 238.2c5.5 0 10.8-1 15.9-3.1 5-2.1 9.5-5 13.3-8.7 3.9-3.8 6.9-8.2 9.1-13.2 2.2-5.1 3.3-10.5 3.3-16.2v-45.5c0-5.5-1.1-10.9-3.3-16-2.2-5-5.2-9.5-9.1-13.2-3.8-3.7-8.2-6.7-13.2-8.8-5.1-2.2-10.4-3.3-16-3.3h-41.4v190.3h25.9v-62.1h15.5zm-15.5-25.3v-77.5h15.5c2.1 0 4.2 0.4 6.1 1.3 2 0.9 3.7 2 5.2 3.5 1.4 1.4 2.5 3.1 3.3 4.9s1.2 3.9 1.2 6v45.8c0 2.2-0.4 4.3-1.2 6.2s-1.9 3.6-3.3 5-3.2 2.6-5.2 3.5c-1.9 0.8-3.9 1.3-6.1 1.3h-15.5z" /><path d="m282.9 300.3v-218.7c0-5.7-1.1-11.2-3.3-16.3s-5.3-9.5-9.2-13.2c-3.8-3.6-8.2-6.5-13.2-8.7-5.1-2.2-10.5-3.3-16-3.3s-11 1.1-16.1 3.3c-5 2.2-9.4 5.1-13.2 8.7-3.8 3.7-6.8 8.1-9 13.2s-3.3 10.6-3.3 16.3v218.8h25.9v-94.9h31.4v94.9h26zm-57.3-120.3v-98.4c0-4.5 1.5-8 4.6-11.2 3.1-3.1 6.6-4.6 11-4.6 2.1 0 4.2 0.4 6.1 1.3 2 0.9 3.7 2.1 5.2 3.5 1.4 1.4 2.5 3.1 3.3 5s1.2 3.9 1.2 6.1v98.3h-31.4z" /><rect x="63.6" y="333" width="364.9" height="11" /><polygon points="428.4 300.3 428.4 274.9 371.3 274.9 428.4 110.1 335.9 110.1 335.9 135.5 392.5 135.5 335.9 300.3" /></svg>
