<svg xmlns="http://www.w3.org/2000/svg" viewBox="0 0 1000 1000"><path d="M462.3 12.1a340.8 340.8 0 0 0-244.7 151.6 379 379 0 0 0-40 85.8c-30.5 101.2-13.7 198 59.3 343.8 43.5 87 90.3 163.7 190.5 313.2 55.2 82.2 56.4 83.5 72.6 83.5 16.7 0 17.1-.6 79.6-93.7 96-143.7 140.8-217.9 183.8-303.8 67.2-134.7 85.6-222 66.3-315.8-8.5-40-30.5-90.2-55-124.9a441 441 0 0 0-79.2-79 342.4 342.4 0 0 0-233.2-60.7zM555 76.9c85 17.4 154.1 71.4 194 151.2a318 318 0 0 1 21.6 65c6 27.7 6 74 0 103.4a658 658 0 0 1-31.4 100.2c-21.5 54-68 142-114.6 216.6C598.3 755.6 501.8 901 500 901c-.7 0-20.8-29.2-44.4-64.8C366.3 702.7 331 644 291.2 563c-59.6-121.4-76.7-196.3-61.5-270.6a277 277 0 0 1 235.9-219c20.3-3 67.2-.8 89.4 3.6z"/><path d="M478 191.5a171.7 171.7 0 0 0-76 33.9 153.7 153.7 0 0 0-40.9 52c-12.5 25.6-15.1 37.5-15.1 68s2.6 42.3 15.1 68a151.9 151.9 0 0 0 71.3 71 152.7 152.7 0 0 0 176-28.9 155.2 155.2 0 0 0 42-148.5 184 184 0 0 0-30.4-59.8 158.8 158.8 0 0 0-142-55.7zm41.6 62a95.3 95.3 0 0 1 72.2 72.3 94.2 94.2 0 0 1-111.3 111.3c-35.3-7.2-65-37-72.3-72.2a94.2 94.2 0 0 1 111.4-111.3z"/></svg>
